# xmcd
#
# Track frame offsets:
#	150
#	16809
#	31149
#	51723
#	72872
#	93485
#	108636
#	128041
#	150728
#	168672
#	184341
#	199481
#	214901
#	233781
#	247461
#	271671
#	290381
#	309301
#	325111
#	342411
#
# Disc length: 4773 seconds
#
# Revision: 0
# Processed by: cddbd v1.5.2PL0 Copyright (c) Steve Scherf et al.
# Submitted via: audiograbber 1.83.01
#
DISCID=3212a314
DTITLE=Bauer, Garn and Dyke - Sturmfrei/Himmel, Arsch und Zwirn
DYEAR=1979
DGENRE=Bluesrock
TTITLE0=Laubfrosch Blues
TTITLE1=Sturmfrei
TTITLE2=Lock'n Loll
TTITLE3=Ich hau ab
TTITLE4=Sibirien Bär
TTITLE5=Guitar Man
TTITLE6=Da ha ick Bock druff
TTITLE7=Haltestellen Blues
TTITLE8=Billie
TTITLE9=Ich hab Lust, Baby
TTITLE10=Sabbel Buggie
TTITLE11=Rock'n Roll Musketiere
TTITLE12=Hallo Jo
TTITLE13=Marleen
TTITLE14=Die Spinne
TTITLE15=Alte Autos und Rock'n Roll
TTITLE16=1000 Elefanten
TTITLE17=Pyro-Manni
TTITLE18=Lonly Harz
TTITLE19=Mit Dir geht es richtig gut los
EXTD=Die beiden ersten LP's dieses Wahnsinnstrios, digitalisiert mit Steinberg 
EXTD=Clean, enjoy it!!!
EXTT0=
EXTT1=
EXTT2=
EXTT3=
EXTT4=
EXTT5=
EXTT6=
EXTT7=
EXTT8=
EXTT9=
EXTT10=
EXTT11=
EXTT12=
EXTT13=
EXTT14=
EXTT15=
EXTT16=
EXTT17=
EXTT18=
EXTT19=
PLAYORDER=
